<svg width="48" height="48" viewBox="0 0 48 48" fill="none" xmlns="http://www.w3.org/2000/svg">
<rect width="48" height="48" rx="16" fill="#9772FB" fill-opacity="0.27"/>
<path d="M24 29V31.38C24 33.25 23.25 34 21.37 34H16.62C14.75 34 14 33.25 14 31.38V26.63C14 24.75 14.75 24 16.62 24H19V26.37C19 28.25 19.75 29 21.62 29H24Z" stroke="#222222" stroke-width="1.5" stroke-linecap="round" stroke-linejoin="round"/>
<path d="M29 24V26.37C29 28.25 28.25 29 26.37 29H21.62C19.75 29 19 28.25 19 26.37V21.62C19 19.75 19.75 19 21.62 19H24V21.37C24 23.25 24.75 24 26.62 24H29Z" stroke="#222222" stroke-width="1.5" stroke-linecap="round" stroke-linejoin="round"/>
<path d="M34 16.62V21.37C34 23.25 33.25 24 31.37 24H26.62C24.75 24 24 23.25 24 21.37V16.62C24 14.75 24.75 14 26.62 14H31.37C33.25 14 34 14.75 34 16.62Z" stroke="#222222" stroke-width="1.5" stroke-linecap="round" stroke-linejoin="round"/>
</svg>
