<svg width="24" height="24" viewBox="0 0 24 24" fill="none" xmlns="http://www.w3.org/2000/svg">
<g clip-path="url(#clip0_13_229)">
<path d="M18.8366 16.4091H10.2309C9.44771 16.4036 8.68919 16.1348 8.07727 15.646C7.46536 15.1572 7.03561 14.4769 6.85715 13.7143L5.48572 8.13943C5.35954 7.62179 5.35308 7.08219 5.46681 6.56167C5.58054 6.04115 5.81147 5.55343 6.14205 5.13558C6.47262 4.71774 6.89413 4.38078 7.37451 4.15033C7.8549 3.91989 8.38151 3.80203 8.91429 3.80572H20.2286C20.7614 3.80203 21.288 3.91989 21.7684 4.15033C22.2487 4.38078 22.6702 4.71774 23.0008 5.13558C23.3314 5.55343 23.5623 6.04115 23.6761 6.56167C23.7898 7.08219 23.7833 7.62179 23.6571 8.13943L22.2857 13.728C22.1005 14.5001 21.6582 15.1861 21.0313 15.6734C20.4045 16.1607 19.6305 16.4201 18.8366 16.4091ZM8.87315 5.52C8.60211 5.52083 8.33477 5.58297 8.09115 5.70178C7.84753 5.82058 7.63395 5.99297 7.46641 6.20603C7.29887 6.41908 7.1817 6.66729 7.12369 6.93205C7.06568 7.19681 7.06833 7.47127 7.13143 7.73486L8.50286 13.3234C8.59574 13.7151 8.81842 14.0638 9.13465 14.3128C9.45089 14.5618 9.84208 14.6964 10.2446 14.6949H18.8366C19.2391 14.6964 19.6303 14.5618 19.9465 14.3128C20.2627 14.0638 20.4854 13.7151 20.5783 13.3234L21.9497 7.73486C22.0142 7.47116 22.0179 7.19624 21.9604 6.93091C21.9029 6.66559 21.7859 6.41681 21.6181 6.20341C21.4503 5.99002 21.2361 5.81759 20.9918 5.69919C20.7475 5.58079 20.4795 5.51951 20.208 5.52H8.87315Z" fill="#222222"/>
<path d="M6.48687 9.6C6.29104 9.59768 6.10191 9.52838 5.95095 9.40362C5.79999 9.27886 5.69631 9.10617 5.65716 8.91428L4.42973 3.58628C4.31638 3.10092 4.04167 2.6684 3.65054 2.35948C3.2594 2.05055 2.775 1.88352 2.27658 1.88571H1.15887C0.931542 1.88571 0.713524 1.79541 0.552779 1.63466C0.392033 1.47391 0.301727 1.2559 0.301727 1.02857C0.301727 0.80124 0.392033 0.583223 0.552779 0.422477C0.713524 0.261732 0.931542 0.171426 1.15887 0.171426H2.27658C3.16239 0.168331 4.02307 0.465695 4.71804 1.01495C5.41301 1.5642 5.9012 2.33288 6.10287 3.19543L7.32344 8.52343C7.34986 8.63287 7.35428 8.74646 7.33645 8.85763C7.31861 8.96879 7.27888 9.07531 7.21956 9.17099C7.16023 9.26668 7.08249 9.34963 6.99085 9.41504C6.89922 9.48044 6.7955 9.52699 6.68573 9.552C6.6213 9.57489 6.55465 9.59097 6.48687 9.6ZM10.3612 23.8286C9.81867 23.8286 9.28837 23.6677 8.83731 23.3663C8.38625 23.0649 8.03469 22.6365 7.82709 22.1354C7.61949 21.6342 7.56517 21.0827 7.671 20.5506C7.77684 20.0185 8.03807 19.5298 8.42166 19.1462C8.80526 18.7626 9.29399 18.5014 9.82605 18.3956C10.3581 18.2897 10.9096 18.344 11.4108 18.5516C11.912 18.7592 12.3404 19.1108 12.6418 19.5619C12.9431 20.0129 13.104 20.5432 13.104 21.0857C13.104 21.8132 12.815 22.5108 12.3006 23.0252C11.7863 23.5396 11.0886 23.8286 10.3612 23.8286ZM10.3612 20.0297C10.155 20.0297 9.9535 20.0908 9.78209 20.2054C9.61069 20.3199 9.4771 20.4827 9.39821 20.6731C9.31932 20.8636 9.29868 21.0732 9.3389 21.2753C9.37912 21.4775 9.47838 21.6632 9.62415 21.809C9.76991 21.9548 9.95563 22.054 10.1578 22.0943C10.36 22.1345 10.5696 22.1138 10.76 22.0349C10.9505 21.9561 11.1133 21.8225 11.2278 21.6511C11.3423 21.4797 11.4034 21.2781 11.4034 21.072C11.4034 20.7956 11.2936 20.5305 11.0982 20.335C10.9027 20.1395 10.6376 20.0297 10.3612 20.0297ZM19.8377 23.8286C19.2952 23.8286 18.7649 23.6677 18.3139 23.3663C17.8628 23.0649 17.5113 22.6365 17.3037 22.1354C17.0961 21.6342 17.0417 21.0827 17.1476 20.5506C17.2534 20.0185 17.5146 19.5298 17.8982 19.1462C18.2818 18.7626 18.7706 18.5014 19.3026 18.3956C19.8347 18.2897 20.3862 18.344 20.8874 18.5516C21.3886 18.7592 21.8169 19.1108 22.1183 19.5619C22.4197 20.0129 22.5806 20.5432 22.5806 21.0857C22.5806 21.8132 22.2916 22.5108 21.7772 23.0252C21.2628 23.5396 20.5652 23.8286 19.8377 23.8286ZM19.8377 20.0297C19.6319 20.0311 19.431 20.0933 19.2605 20.2087C19.09 20.324 18.9575 20.4873 18.8797 20.6779C18.8018 20.8684 18.7822 21.0778 18.8232 21.2795C18.8642 21.4812 18.964 21.6663 19.11 21.8114C19.256 21.9565 19.4418 22.0551 19.6438 22.0947C19.8457 22.1344 20.055 22.1134 20.245 22.0343C20.4351 21.9552 20.5975 21.8216 20.7117 21.6503C20.8259 21.4791 20.8869 21.2778 20.8869 21.072C20.8869 20.9345 20.8597 20.7984 20.8069 20.6715C20.7541 20.5446 20.6767 20.4294 20.5792 20.3326C20.4817 20.2357 20.3659 20.159 20.2387 20.1071C20.1115 20.0551 19.9752 20.0288 19.8377 20.0297Z" fill="#222222"/>
<path d="M19.8377 20.0297H8.41371C7.70626 20.0297 7.02779 19.7487 6.52755 19.2484C6.02731 18.7482 5.74628 18.0697 5.74628 17.3623C5.74628 16.6548 6.02731 15.9764 6.52755 15.4761C7.02779 14.9759 7.70626 14.6949 8.41371 14.6949H10.2308C10.4582 14.6949 10.6762 14.7852 10.8369 14.9459C10.9977 15.1067 11.088 15.3247 11.088 15.552C11.088 15.7793 10.9977 15.9973 10.8369 16.1581C10.6762 16.3188 10.4582 16.4091 10.2308 16.4091H8.41371C8.16092 16.4091 7.91848 16.5096 7.73973 16.6883C7.56098 16.8671 7.46056 17.1095 7.46056 17.3623C7.46056 17.6151 7.56098 17.8575 7.73973 18.0363C7.91848 18.215 8.16092 18.3154 8.41371 18.3154H19.8377C20.065 18.3154 20.2831 18.4057 20.4438 18.5665C20.6045 18.7272 20.6948 18.9452 20.6948 19.1726C20.6948 19.3999 20.6045 19.6179 20.4438 19.7787C20.2831 19.9394 20.065 20.0297 19.8377 20.0297Z" fill="#222222"/>
</g>
<defs>
<clipPath id="clip0_13_229">
<rect width="24" height="24" fill="white"/>
</clipPath>
</defs>
</svg>
