<svg width="25" height="24" viewBox="0 0 25 24" fill="none" xmlns="http://www.w3.org/2000/svg">
<path d="M12.32 2.90997C9.01005 2.90997 6.32004 5.59997 6.32004 8.90997V11.8C6.32004 12.41 6.06004 13.34 5.75004 13.86L4.60005 15.77C3.89005 16.95 4.38005 18.26 5.68005 18.7C9.99005 20.14 14.64 20.14 18.95 18.7C20.16 18.3 20.69 16.87 20.03 15.77L18.88 13.86C18.58 13.34 18.32 12.41 18.32 11.8V8.90997C18.32 5.60997 15.62 2.90997 12.32 2.90997Z" stroke="#222222" stroke-width="1.5" stroke-miterlimit="10" stroke-linecap="round"/>
<path d="M14.17 3.2C13.86 3.11 13.54 3.04 13.21 3C12.25 2.88 11.33 2.95 10.47 3.2C10.76 2.46 11.48 1.94 12.32 1.94C13.16 1.94 13.88 2.46 14.17 3.2Z" stroke="#222222" stroke-width="1.5" stroke-miterlimit="10" stroke-linecap="round" stroke-linejoin="round"/>
<path d="M15.32 19.06C15.32 20.71 13.97 22.06 12.32 22.06C11.5 22.06 10.74 21.72 10.2 21.18C9.66004 20.64 9.32004 19.88 9.32004 19.06" stroke="#222222" stroke-width="1.5" stroke-miterlimit="10"/>
</svg>
