<svg width="25" height="24" viewBox="0 0 25 24" fill="none" xmlns="http://www.w3.org/2000/svg">
<path d="M12.72 12.78C12.65 12.77 12.56 12.77 12.48 12.78C10.72 12.72 9.31998 11.28 9.31998 9.50998C9.31998 7.69998 10.78 6.22998 12.6 6.22998C14.41 6.22998 15.88 7.69998 15.88 9.50998C15.87 11.28 14.48 12.72 12.72 12.78Z" stroke="#222222" stroke-width="1.5" stroke-linecap="round" stroke-linejoin="round"/>
<path d="M19.34 19.3801C17.56 21.0101 15.2 22.0001 12.6 22.0001C10 22.0001 7.64002 21.0101 5.86002 19.3801C5.96002 18.4401 6.56002 17.5201 7.63002 16.8001C10.37 14.9801 14.85 14.9801 17.57 16.8001C18.64 17.5201 19.24 18.4401 19.34 19.3801Z" stroke="#222222" stroke-width="1.5" stroke-linecap="round" stroke-linejoin="round"/>
<path d="M12.6 22C18.1228 22 22.6 17.5228 22.6 12C22.6 6.47715 18.1228 2 12.6 2C7.07716 2 2.60001 6.47715 2.60001 12C2.60001 17.5228 7.07716 22 12.6 22Z" stroke="#222222" stroke-width="1.5" stroke-linecap="round" stroke-linejoin="round"/>
</svg>
